<svg width="668" height="287" viewBox="0 0 668 287" fill="none" xmlns="http://www.w3.org/2000/svg">

<path d="M77.4286 97.4286C77.4286 95.2991 75.7009 93.5714 73.5714 93.5714H69.0714C68.0067 93.5714 67.1429 92.7076 67.1429 91.6429V91C67.1429 88.1674 69.4531 85.8571 72.2857 85.8571H73.5714C74.2746 85.8571 74.8571 85.2746 74.8571 84.5714V82C74.8571 81.2969 74.2746 80.7143 73.5714 80.7143H72.2857C66.6205 80.7143 62 85.3348 62 91V105.143C62 107.272 63.7277 109 65.8571 109H73.5714C75.7009 109 77.4286 107.272 77.4286 105.143V97.4286ZM95.4286 97.4286C95.4286 95.2991 93.7009 93.5714 91.5714 93.5714H87.0714C86.0067 93.5714 85.1429 92.7076 85.1429 91.6429V91C85.1429 88.1674 87.4531 85.8571 90.2857 85.8571H91.5714C92.2746 85.8571 92.8571 85.2746 92.8571 84.5714V82C92.8571 81.2969 92.2746 80.7143 91.5714 80.7143H90.2857C84.6205 80.7143 80 85.3348 80 91V105.143C80 107.272 81.7277 109 83.8571 109H91.5714C93.7009 109 95.4286 107.272 95.4286 105.143V97.4286Z" fill="#5474FD"></path>
<defs>
<clipPath id="clip0_0_18">
<rect width="668" height="287" fill="white"/>
</clipPath>
</defs>
</svg>
